# xmcd
#
# Track frame offsets:
#	150
#	19200
#	35162
#	51840
#	72801
#	92243
#
# Disc length: 1509 seconds
#
# Revision: 1
# Processed by: cddbd v1.5.2PL0 Copyright (c) Steve Scherf et al.
# Submitted via: audiograbber 1.83.01
#
DISCID=4f05e306
DTITLE=Two Tears In A Bucket - Debut EP
DYEAR=2018
DGENRE=Blues
TTITLE0=Gasoline
TTITLE1=Catch 22
TTITLE2=Yellow
TTITLE3=Wet Cement
TTITLE4=Red Blossem
TTITLE5=Diamonds
EXTD=
EXTT0=
EXTT1=
EXTT2=
EXTT3=
EXTT4=
EXTT5=
PLAYORDER=
